# xmcd
#
# Track frame offsets:
#	150
#	17488
#	35183
#	51900
#	66463
#	85990
#	101701
#	123827
#	138668
#	161429
#	173010
#	192779
#	213055
#	224292
#	242313
#
# Disc length: 3482 seconds
#
# Revision: 3
# Processed by: cddbd v1.5.2PL0 Copyright (c) Steve Scherf et al.
# Submitted via: audiograbber 1.83.01
#
DISCID=ce0d980f
DTITLE=Various Artist - Classic Country - New Country [Disc 2]
DYEAR=2002
DGENRE=Country
TTITLE0=Alison Krauss - Baby, Now That I've Found You
TTITLE1=Rosanne Cash - The Way We Make A Broken Heart
TTITLE2=James Blundell - Kimberley Moon
TTITLE3=Doug Stone - Why Didn't I Think Of That
TTITLE4=Vince Gill - Whenever You Come Around
TTITLE5=Sherrie Austin - Lucky In Love
TTITLE6=Lee Ann Womack with Sons Of The Desert - I Hope You Dance
TTITLE7=Troy Cassar-Daley - Dream Out Loud
TTITLE8=Iris DeMent - Easy's Gettin' Harder Every Day
TTITLE9=Travis Tritt - Here's A Quarter (Call Someone Who Cares)
TTITLE10=The Mavericks - Dance The Night Away
TTITLE11=Gina Jeffreys - I Haven't Got A Heart
TTITLE12=Alan Jackson - Chattahoochee
TTITLE13=Collin Raye - Little Rock
TTITLE14=Tim McGraw - Don't Take That Girl
EXTD=
EXTT0=
EXTT1=
EXTT2=
EXTT3=
EXTT4=
EXTT5=
EXTT6=
EXTT7=
EXTT8=
EXTT9=
EXTT10=
EXTT11=
EXTT12=
EXTT13=
EXTT14=
PLAYORDER=
